<?xml version="1.0" encoding="UTF-8"?>
<svg xmlns="http://www.w3.org/2000/svg" viewBox="0 0 419.56 406.79">
  <g id="Capa_1" data-name="Capa 1">
    <g>
      <path d="M332.15,377.65v-5.06c-2,2.33-3.22,5.36-3.22,8.67,0,7,5.41,12.73,12.27,13.26-1.08-2.49-1.69-5.23-1.69-8.12,0,0,0-.01,0-.02-4.16-.73-7.36-4.37-7.36-8.73Z" style="fill: #2a2c35;"/>
      <path d="M332.15,377.71c0,4.36,3.19,8.01,7.35,8.73,0-7.23,3.78-13.56,9.46-17.17v-2.2l-.84-3.69h-15.97v14.33h0Z" style="fill: #561f26;"/>
      <polygon points="345.3 350.89 329.47 350.89 332.31 363.37 348.14 363.37 345.3 350.89" style="fill: #6d292f;"/>
      <path d="M194.17,381.26c0,6.18-4.23,11.36-9.94,12.85,.98-2.38,1.53-4.99,1.53-7.72,0-.23-.03-.44-.03-.67-.23-6.94-3.92-13-9.42-16.49v7.77c2.55,2.96,3.92,6.95,3.37,11.27-.83,6.54-6.09,11.72-12.64,12.45-8.7,.97-16.07-5.82-16.07-14.33,0-3.59,1.32-6.87,3.49-9.39v-7.8c-6.04,3.84-9.93,10.75-9.43,18.55,.65,10.04,8.66,18.17,18.69,18.96,6.64,.53,12.64-2.15,16.71-6.62,.14,0,.29,.02,.43,.02,10.42,0,18.86-8.44,18.86-18.86,0-6.7-3.5-12.57-8.76-15.91v7.26c2,2.33,3.22,5.35,3.22,8.66Z" style="fill: #1d1e21;"/>
      <path d="M184.22,394.13c5.73-1.49,9.96-6.68,9.96-12.87,0-3.32-1.22-6.34-3.22-8.67v5.06c0,3.59-2.16,6.68-5.24,8.08,0,.22,.03,.44,.03,.67,0,2.74-.55,5.35-1.53,7.73Z" style="fill: #2a2c35;"/>
      <path d="M176.3,367.07v2.2c5.5,3.5,9.19,9.56,9.42,16.52,3.07-1.4,5.23-4.5,5.23-8.08v-14.33h-13.81l-.84,3.69Z" style="fill: #561f26;"/>
      <polygon points="177.12 363.37 190.82 363.37 193.67 350.89 179.97 350.89 177.12 363.37" style="fill: #6d292f;"/>
      <path d="M166.71,392.19h-2.68c-5.27,0-9.59-4.31-9.59-9.59v-5.47c-2.37,2.75-3.72,6.39-3.46,10.35,.49,7.25,6.41,13.04,13.67,13.39,8.29,.4,15.13-6.19,15.13-14.37,0-3.58-1.32-6.85-3.49-9.37v5.47c0,5.27-4.31,9.59-9.59,9.59Z" style="fill: #3e404c;"/>
      <path d="M154.45,382.4c0,5.25,4.32,9.55,9.61,9.55h2.66c5.27,0,9.59-4.31,9.59-9.59v-15.39h-21.85v15.43h0Z" style="fill: #6d292f;"/>
      <polygon points="177.07 363.28 179.95 350.65 150.65 350.65 154.37 366.98 176.22 366.98 177.07 363.28" style="fill: #8a333a;"/>
      <path d="M374.19,388.28c-.83,6.54-6.09,11.72-12.65,12.44-8.7,.97-16.07-5.82-16.07-14.33,0-3.59,1.32-6.87,3.49-9.39v-7.78c-5.67,3.61-9.45,9.93-9.46,17.16,0,0,0,.01,0,.02,0,2.89,.61,5.63,1.69,8.12-6.86-.53-12.27-6.25-12.27-13.25,0-3.31,1.22-6.34,3.22-8.66v-7.26c-5.26,3.35-8.77,9.22-8.77,15.92,0,10.42,8.45,18.87,18.87,18.87,.83,0,1.64-.07,2.44-.18,4.17,4.68,10.45,7.44,17.36,6.73,9.61-.99,17.26-8.73,18.15-18.36,.74-8.03-3.2-15.19-9.39-19.12v7.8c2.55,2.96,3.92,6.95,3.37,11.27Z" style="fill: #1d1e21;"/>
      <path d="M374.28,387.49c.27-3.97-1.09-7.61-3.46-10.35v5.47c0,5.27-4.31,9.59-9.59,9.59h-2.68c-5.27,0-9.59-4.31-9.59-9.59v-5.47c-2.17,2.52-3.49,5.79-3.49,9.37,0,8.18,6.85,14.77,15.13,14.37,7.26-.35,13.19-6.14,13.67-13.39Z" style="fill: #3e404c;"/>
      <path d="M348.96,369.17v13.19c0,5.27,4.31,9.59,9.59,9.59h2.68c5.27,0,9.59-4.31,9.59-9.59v-15.39h-21.85v2.2h0Z" style="fill: #6d292f;"/>
      <polygon points="348.21 363.28 349.05 366.98 370.9 366.98 374.63 350.65 345.33 350.65 348.21 363.28" style="fill: #8a333a;"/>
      <path d="M117.45,98.74l-7.09-36.7c-.3-2.02-4.73-28.83-25.41-36.13L45.58,13.1l-1.89,6.14,39.19,12.75c17.28,6.1,21.1,30.81,21.13,31.05v.07s6.89,35.87,6.89,35.87h-14.62l-9.77-39.96c-.25-1.14-3.89-16.5-15.5-21.57-8.51-3.71-20.79-7.32-29.8-9.73l-1.89,6.14c8.85,2.37,20.98,5.91,29.13,9.47,8.78,3.83,11.78,16.97,11.81,17.1l9.43,38.55h-.1l33.41,161.96c2.2,10.64,12.36,18.33,23.96,18.33,.45,0,.91-.01,1.36-.04l8.86-.46-34.49,47.3c-3.68,4.54-4.42,10.63-1.92,15.93,2.52,5.34,7.75,8.65,13.65,8.65H395.07c2.51,0,4.54-2.06,4.33-4.56-.18-2.15-2-3.85-4.22-3.85H134.52c-2.41,0-4.68-1.25-5.86-3.35-1.4-2.5-1.14-5.35,.64-7.51l32.79-44.96,46.91-3.09c2.33-.15,4.1-2.17,3.95-4.5-.08-1.16-.61-2.18-1.42-2.89l176.32-9.14c12.44-.65,22.34-9.81,23.02-21.32l1.84-31.02h.15s-.04-1.74-.04-1.74l6.75-113.97H117.45Zm172.35,8.65l1.95,51.15h-31.71l-3.64-51.15h33.4Zm-32.41,104.38l-27.45,.67-6.01-47.66h30.12l3.34,46.99Zm-7.46-104.38l3.64,51.15h-30.44l-6.45-51.15h33.26Zm-102.89,57.39h33.26l8.39,48.68-32.92,.81-8.73-49.49Zm2.24,49.64l-9.47,.23-9.62-49.88h10.32l8.76,49.64Zm37.53-49.64h30.64l6.03,47.82-28.31,.7-8.36-48.52Zm23.36-57.39l6.45,51.15h-30.9l-8.82-51.15h33.27Zm-39.82,0l8.82,51.15h-33.25l-9.03-51.15h33.46Zm-40,0l9.03,51.15h-10.42l-9.86-51.15h11.26Zm-30.36,0h12.56l9.86,51.15h-11.87l-10.55-51.15Zm22.25,107.7l-10.38-50.31h11.79l9.65,50.04-11.07,.27Zm9.08,44.12l-7.76-37.61,10.98-.27,9.49,49.21c-6.33-1.07-11.5-5.49-12.71-11.33Zm19.27,11.43l-9.54-49.47,9.36-.23,8.69,49.26-8.51,.44Zm14.97-.78l-8.66-49.09,32.89-.81,8.31,48.21-32.54,1.69Zm39-2.02l-8.28-48.03,28.02-.69,5.98,47.39-25.72,1.33Zm32.15-1.67l-5.96-47.21,27.1-.67,3.31,46.61-24.46,1.27Zm23.78-101.4h31.53l1.76,46.09-29.96,.74-3.33-46.83Zm7.09,99.8l-3.3-46.44,29.75-.73,1.74,45.71-28.19,1.46Zm28.72-157.19h33.46l.83,51.15h-32.34l-1.95-51.15Zm2.19,57.39h32.23l.73,45.17-31.21,.77-1.75-45.94Zm3.62,98l-1.74-45.53,31.07-.76,.72,44.74-30.06,1.56Zm67.71-3.51l-31.17,1.62-.72-44.56,33.08-.81-1.18,43.76Zm1.46-50.3l-33.36,.82-.73-45.01h35.28l-1.2,44.19Zm1.2-50.44h-35.52l-.83-51.15h37.73l-1.39,51.15Zm29.91,86.47c-.43,7.19-6.87,12.94-15,13.36l-10.8,.56,1.18-43.57,26.41-.65-1.79,30.3Zm2.17-36.85l-26.61,.65,1.19-44.03h27.99l-2.57,43.37Zm2.93-49.62h-28.17l1.38-51.15h29.81l-3.03,51.15Z" style="fill: #003596;"/>
      <path d="M43.69,19.23l1.89-6.14,1.14-3.71S32.51,4.34,18.24,.62C10.71-1.34,3.59,1.4,1.32,8.06c-5.25,15.41,6.84,21.27,6.84,21.27l29.44,9.69,1.66-5.4,1.89-6.15,2.54-8.24Z" style="fill: #8a333a;"/>
    </g>
  </g>
  <g id="Capa_2" data-name="Capa 2">
    <circle cx="262.08" cy="186.5" r="61" style="fill: #fff; stroke: #003596; stroke-miterlimit: 10; stroke-width: 5px;"/>
  </g>
  <g id="Capa_3" data-name="Capa 3">
    <text transform="translate(248.61 217.71)" style="fill: #003596; font-family: BookmanOldStyle, &apos;Bookman Old Style&apos;; font-size: 90px;"><tspan x="0" y="0">!</tspan></text>
  </g>
</svg>